<?xml version="1.0"?>
<!DOCTYPE svg  PUBLIC '-//W3C//DTD SVG 1.1//EN'  'http://www.w3.org/Graphics/SVG/1.1/DTD/svg11.dtd'>
<svg 
xmlns="http://www.w3.org/2000/svg" 
xmlns:xlink="http://www.w3.org/1999/xlink" 
xmlns:serif="http://www.serif.com/" 
width="100%" height="100%" 
viewBox="0 0 512 512" 
version="1.1" 
xml:space="preserve" 
style="fill-rule:evenodd;clip-rule:evenodd;stroke-linejoin:round;stroke-miterlimit:2;">
<g transform="matrix(1,0,0,1,-2248,-2248)">
<g id="Icons">
<path 
d="M2339.47,2301.69C2331.28,2304.87 2325.88,2309.34 2322.74,2314.03C2317.49,2321.89 2317.86,2330.72 2322.18,2337.56C2325.6,2342.98 2331.61,2347.22 2339.47,2348.45L2339.47,2363.84C2331.28,2367.01 2325.88,2371.48 2322.74,2376.17C2317.49,2384.03 2317.86,2392.86 2322.18,2399.7C2325.6,2405.12 2331.61,2409.36 2339.47,2410.6L2339.47,2425.98C2331.28,2429.15 2325.88,2433.62 2322.74,2438.32C2317.49,2446.17 2317.86,2455 2322.18,2461.85C2325.6,2467.27 2331.61,2471.51 2339.47,2472.74L2339.47,2487.05C2331.28,2490.23 2325.88,2494.69 2322.74,2499.39C2317.49,2507.24 2317.86,2516.07 2322.18,2522.92C2325.6,2528.34 2331.61,2532.58 2339.47,2533.81L2339.47,2549.19C2331.28,2552.37 2325.88,2556.84 2322.74,2561.53C2317.49,2569.39 2317.86,2578.22 2322.18,2585.06C2325.6,2590.48 2331.61,2594.72 2339.47,2595.95L2339.47,2611.34C2331.28,2614.51 2325.88,2618.98 2322.74,2623.67C2317.49,2631.53 2317.86,2640.36 2322.18,2647.2C2325.6,2652.62 2331.61,2656.86 2339.47,2658.1L2339.47,2673.48C2331.28,2676.65 2325.88,2681.12 2322.74,2685.82C2317.49,2693.67 2317.86,2702.5 2322.18,2709.35C2325.6,2714.77 2331.61,2719.01 2339.47,2720.24L2339.47,2738.65C2339.47,2744.36 2344.1,2749 2349.81,2749C2349.81,2749 2678.76,2749 2678.76,2749C2684.47,2749 2689.11,2744.36 2689.11,2738.65L2689.11,2269.35C2689.11,2263.64 2684.47,2259 2678.76,2259C2678.76,2259 2349.81,2259 2349.81,2259C2344.1,2259 2339.47,2263.64 2339.47,2269.35L2339.47,2301.69ZM2349.47,2680.74L2349.47,2738.65C2349.47,2738.85 2349.62,2739 2349.81,2739L2678.76,2739C2678.95,2739 2679.11,2738.85 2679.11,2738.65L2679.11,2269.35C2679.11,2269.16 2678.95,2269 2678.76,2269L2349.81,2269C2349.62,2269 2349.47,2269.16 2349.47,2269.35L2349.47,2298.8C2353.89,2297.9 2358.86,2297.31 2364.42,2297.11C2366.45,2291.45 2371.86,2287.39 2378.22,2287.39C2386.3,2287.39 2392.86,2293.95 2392.86,2302.03C2392.86,2310.12 2386.3,2316.68 2378.22,2316.68C2371.92,2316.68 2366.54,2312.69 2364.48,2307.11C2358.73,2307.31 2353.74,2307.96 2349.47,2308.95L2349.47,2360.95C2353.89,2360.04 2358.86,2359.45 2364.42,2359.25C2366.45,2353.59 2371.86,2349.53 2378.22,2349.53C2386.3,2349.53 2392.86,2356.1 2392.86,2364.18C2392.86,2372.26 2386.3,2378.82 2378.22,2378.82C2371.92,2378.82 2366.54,2374.84 2364.48,2369.25C2358.73,2369.46 2353.74,2370.1 2349.47,2371.09L2349.47,2423.09C2353.89,2422.18 2358.86,2421.59 2364.42,2421.39C2366.45,2415.73 2371.86,2411.68 2378.22,2411.68C2386.3,2411.68 2392.86,2418.24 2392.86,2426.32C2392.86,2434.4 2386.3,2440.96 2378.22,2440.96C2371.92,2440.96 2366.54,2436.98 2364.48,2431.39C2358.73,2431.6 2353.74,2432.24 2349.47,2433.24L2349.47,2484.16C2353.89,2483.26 2358.86,2482.66 2364.42,2482.47C2366.45,2476.8 2371.86,2472.75 2378.22,2472.75C2386.3,2472.75 2392.86,2479.31 2392.86,2487.39C2392.86,2495.47 2386.3,2502.03 2378.22,2502.03C2371.92,2502.03 2366.54,2498.05 2364.48,2492.47C2358.73,2492.67 2353.74,2493.31 2349.47,2494.31L2349.47,2546.3C2353.89,2545.4 2358.86,2544.81 2364.42,2544.61C2366.45,2538.95 2371.86,2534.89 2378.22,2534.89C2386.3,2534.89 2392.86,2541.45 2392.86,2549.53C2392.86,2557.62 2386.3,2564.18 2378.22,2564.18C2371.92,2564.18 2366.54,2560.19 2364.48,2554.61C2358.73,2554.81 2353.74,2555.46 2349.47,2556.45L2349.47,2608.45C2353.89,2607.54 2358.86,2606.95 2364.42,2606.75C2366.45,2601.09 2371.86,2597.03 2378.22,2597.03C2386.3,2597.03 2392.86,2603.6 2392.86,2611.68C2392.86,2619.76 2386.3,2626.32 2378.22,2626.32C2371.92,2626.32 2366.54,2622.34 2364.48,2616.75C2358.73,2616.96 2353.74,2617.6 2349.47,2618.59L2349.47,2670.59C2353.89,2669.68 2358.86,2669.09 2364.42,2668.89C2366.45,2663.23 2371.86,2659.18 2378.22,2659.18C2386.3,2659.18 2392.86,2665.74 2392.86,2673.82C2392.86,2681.9 2386.3,2688.46 2378.22,2688.46C2371.92,2688.46 2366.54,2684.48 2364.48,2678.89C2358.73,2679.1 2353.74,2679.74 2349.47,2680.74ZM2339.47,2684.28C2335.62,2686.26 2332.85,2688.69 2331.05,2691.37C2328.23,2695.59 2328.32,2700.33 2330.64,2704.01C2332.45,2706.88 2335.52,2709.06 2339.47,2710.04L2339.47,2684.28ZM2378.22,2669.18C2380.78,2669.18 2382.86,2671.26 2382.86,2673.82C2382.86,2676.38 2380.78,2678.46 2378.22,2678.46C2375.65,2678.46 2373.57,2676.38 2373.57,2673.82C2373.57,2671.26 2375.65,2669.18 2378.22,2669.18ZM2339.47,2622.13C2335.62,2624.12 2332.85,2626.55 2331.05,2629.23C2328.23,2633.45 2328.32,2638.19 2330.64,2641.87C2332.45,2644.74 2335.52,2646.92 2339.47,2647.9L2339.47,2622.13ZM2378.22,2607.03C2380.78,2607.03 2382.86,2609.12 2382.86,2611.68C2382.86,2614.24 2380.78,2616.32 2378.22,2616.32C2375.65,2616.32 2373.57,2614.24 2373.57,2611.68C2373.57,2609.12 2375.65,2607.03 2378.22,2607.03ZM2339.47,2559.99C2335.62,2561.98 2332.85,2564.4 2331.05,2567.09C2328.23,2571.31 2328.32,2576.05 2330.64,2579.72C2332.45,2582.6 2335.52,2584.78 2339.47,2585.76L2339.47,2559.99ZM2378.22,2544.89C2380.78,2544.89 2382.86,2546.97 2382.86,2549.53C2382.86,2552.1 2380.78,2554.18 2378.22,2554.18C2375.65,2554.18 2373.57,2552.1 2373.57,2549.53C2373.57,2546.97 2375.65,2544.89 2378.22,2544.89ZM2339.47,2497.85C2335.62,2499.84 2332.85,2502.26 2331.05,2504.95C2328.23,2509.16 2328.32,2513.9 2330.64,2517.58C2332.45,2520.45 2335.52,2522.64 2339.47,2523.61L2339.47,2497.85ZM2378.22,2482.75C2380.78,2482.75 2382.86,2484.83 2382.86,2487.39C2382.86,2489.95 2380.78,2492.03 2378.22,2492.03C2375.65,2492.03 2373.57,2489.95 2373.57,2487.39C2373.57,2484.83 2375.65,2482.75 2378.22,2482.75ZM2339.47,2436.78C2335.62,2438.76 2332.85,2441.19 2331.05,2443.87C2328.23,2448.09 2328.32,2452.83 2330.64,2456.51C2332.45,2459.38 2335.52,2461.56 2339.47,2462.54L2339.47,2436.78ZM2378.22,2421.68C2380.78,2421.68 2382.86,2423.76 2382.86,2426.32C2382.86,2428.88 2380.78,2430.96 2378.22,2430.96C2375.65,2430.96 2373.57,2428.88 2373.57,2426.32C2373.57,2423.76 2375.65,2421.68 2378.22,2421.68ZM2339.47,2374.63C2335.62,2376.62 2332.85,2379.05 2331.05,2381.73C2328.23,2385.95 2328.32,2390.69 2330.64,2394.37C2332.45,2397.24 2335.52,2399.42 2339.47,2400.4L2339.47,2374.63ZM2378.22,2359.53C2380.78,2359.53 2382.86,2361.62 2382.86,2364.18C2382.86,2366.74 2380.78,2368.82 2378.22,2368.82C2375.65,2368.82 2373.57,2366.74 2373.57,2364.18C2373.57,2361.62 2375.65,2359.53 2378.22,2359.53ZM2339.47,2312.49C2335.62,2314.48 2332.85,2316.9 2331.05,2319.59C2328.23,2323.81 2328.32,2328.55 2330.64,2332.22C2332.45,2335.1 2335.52,2337.28 2339.47,2338.26L2339.47,2312.49ZM2378.22,2297.39C2380.78,2297.39 2382.86,2299.47 2382.86,2302.03C2382.86,2304.6 2380.78,2306.68 2378.22,2306.68C2375.65,2306.68 2373.57,2304.6 2373.57,2302.03C2373.57,2299.47 2375.65,2297.39 2378.22,2297.39Z"
fill="#009ccc" 
/></g></g></svg>