<svg xmlns="http://www.w3.org/2000/svg" viewBox="0 0 512 512" xml:space="preserve" enable-background="new 0 0 512 512"><path d="M471 41H285.143l-20-20H391c5.523 0 10-4.477 10-10s-4.477-10-10-10H171c-22.056 0-40 17.944-40 40v140H81c-5.523 0-10 4.477-10 10v51.12l-35.913-19.743c-4.838-2.659-10.919-.894-13.581 3.945l-19.27 35.05c-2.661 4.839-.892 10.922 3.945 13.581l64.817 35.631v58.536l-35.913-19.743c-4.838-2.658-10.919-.894-13.581 3.945l-19.27 35.05c-2.661 4.839-.892 10.922 3.945 13.581l64.817 35.631V501c0 5.523 4.477 10 10 10h420c5.523 0 10-4.477 10-10V81C511 58.944 493.057 41 471 41zM281 421h80v20h-80v-20zm-129.999-20v-70h110v30c0 5.523 4.477 10 10 10h100c5.523 0 10-4.477 10-10v-30h110v70h-340zM491 221H151V111h340v110zM281 331h80v20h-80v-20zm-129.999-20v-70h110v30c0 5.523 4.477 10 10 10h100c5.523 0 10-4.477 10-10v-30h110v70h-340zM361 241v20h-80v-20h80zM24.582 262.244l9.634-17.523 36.785 20.223v22.818l-46.419-25.518zm0 127 9.634-17.523 36.785 20.223v22.818l-46.419-25.518zM151.001 491v-70h110v30c0 5.523 4.477 10 10 10h100c5.523 0 10-4.477 10-10v-30h110v70h-340z" fill="#009ccc" class="fill-000000"></path><path d="M341 201h120c5.523 0 10-4.477 10-10v-50c0-5.523-4.477-10-10-10H341c-5.523 0-10 4.477-10 10v50c0 5.523 4.478 10 10 10zM181.001 175.805c5.48 0 9.922-4.442 9.922-9.922s-4.442-9.922-9.922-9.922-9.922 4.442-9.922 9.922c-.001 5.479 4.442 9.922 9.922 9.922zM221.005 175.805c5.48 0 9.922-4.442 9.922-9.922s-4.442-9.922-9.922-9.922-9.922 4.442-9.922 9.922c0 5.479 4.442 9.922 9.922 9.922zM260.93 175.805c5.48 0 9.922-4.442 9.922-9.922s-4.442-9.922-9.922-9.922-9.922 4.442-9.922 9.922c0 5.479 4.442 9.922 9.922 9.922zM300.934 175.805c5.48 0 9.922-4.442 9.922-9.922s-4.442-9.922-9.922-9.922-9.922 4.442-9.922 9.922c0 5.479 4.443 9.922 9.922 9.922z" fill="#009ccc" class="fill-000000"></path></svg>