<svg viewBox="0 0 846.66 846.66" xml:space="preserve" xmlns="http://www.w3.org/2000/svg" shape-rendering="geometricPrecision" text-rendering="geometricPrecision" image-rendering="optimizeQuality" fill-rule="evenodd" clip-rule="evenodd"><path d="M91.82 580.72V142.85c0-72.81 59.49-132.3 132.3-132.3h462.04c72.81 0 132.3 59.49 132.3 132.3v485.13c0 72.81-59.5 132.3-132.3 132.3H283.6v55.19c0 11.4-9.25 20.65-20.65 20.65H48.85c-11.4 0-20.65-9.25-20.65-20.65v-214.1c0-11.4 9.25-20.65 20.65-20.65h42.97zm-5.74 141.11c-14.51-22.78 20.16-44.88 34.68-22.1l15.05 23.57 55.79-78.51c15.68-22.03 49.23 1.83 33.55 23.87l-73.49 103.37c-8.34 11.74-26.19 11.52-34.09-.87l-31.49-49.33zm691.09-161.74H380.5c-27.16 0-27.16-41.29 0-41.29h396.67V142.85c0-50.01-41-91.01-91.01-91.01H224.12c-50.01 0-91.01 41-91.01 91.01v437.87h129.84c11.4 0 20.65 9.25 20.65 20.65v117.62h402.56c50.01 0 91.01-41 91.01-91.01v-67.89zM239.12 422.95c0 27.15-41.29 27.15-41.29 0 0-59.49 33.15-113.75 85.69-141.18-17.87-18.81-27.97-43.76-27.97-69.78 0-56.03 45.43-101.46 101.46-101.46 56.03 0 101.46 45.43 101.46 101.46 0 26.02-10.1 50.97-27.97 69.78 52.54 27.43 85.69 81.69 85.69 141.18 0 27.15-41.29 27.15-41.29 0 0-53.61-36.08-100.54-87.95-114.09-9.59 2.98-19.91 4.59-29.94 4.59-10.03 0-20.36-1.61-29.94-4.59-51.87 13.55-87.95 60.48-87.95 114.09zm117.89-150.79c33.61 0 60.17-26.82 60.17-60.17 0-33.23-26.94-60.17-60.17-60.17-33.23 0-60.17 26.94-60.17 60.17 0 34.2 27.34 60.17 60.17 60.17zm208.85 172.48c-27.15 0-27.15-41.29 0-41.29h125.95c27.15 0 27.15 41.29 0 41.29H565.86zm0-121.74c-27.15 0-27.15-41.29 0-41.29h125.95c27.15 0 27.15 41.29 0 41.29H565.86zm0-121.75c-27.15 0-27.15-41.29 0-41.29h125.95c27.15 0 27.15 41.29 0 41.29H565.86zM242.31 622.01H69.49v172.81h172.82V622.01z" fill="#009ccc" fill-rule="nonzero" class="fill-000000"></path></svg>