<svg viewBox="0 0 32 32" xml:space="preserve" xmlns="http://www.w3.org/2000/svg"><path fill="none" d="M0 0h32v32H0z"></path><path d="M24 14.059V5.584L18.414 0H0v32h24v-.059c4.499-.5 7.998-4.309 8-8.941a8.998 8.998 0 0 0-8-8.941zM17.998 2.413 21.586 6h-3.588V2.413zM2 30V1.998h14v6.001h6v6.06A8.957 8.957 0 0 0 17.348 16H4v2h11.517a8.952 8.952 0 0 0-.994 2H4v2h10.059a8.978 8.978 0 0 0 3.29 8H2zm21-.117A6.898 6.898 0 0 1 16.115 23 6.898 6.898 0 0 1 23 16.115 6.898 6.898 0 0 1 29.883 23 6.898 6.898 0 0 1 23 29.883zM20 12H4v2h16v-2z" fill="#009ccc" class="fill-000000"></path><path d="m18 23 2-2 2 2 4-4 2 2-6 6z" fill="#009ccc" class="fill-000000"></path></svg>