<?xml version="1.0" encoding="utf-8"?>
<svg width="1059.636" height="397.574" viewBox="0 0 1059.636 397.574" fill="none" stroke="none" version="1.1" xmlns:xlink="http://www.w3.org/1999/xlink" xmlns="http://www.w3.org/2000/svg">
  <g id="Group">
    <g style="mix-blend-mode:normal;" transform="matrix(0.993 -0.122 0.122 0.993 0 126.013)">
      <path d="M22.464 174.816L24.768 174.816Q29.088 171.072 31.824 164.16Q34.56 157.248 36.144 148.608Q37.728 139.968 38.304 130.032Q38.88 120.096 38.88 110.304Q30.816 110.88 23.904 107.712Q15.552 103.968 10.944 96.48Q6.912 90.144 6.048 81.648Q5.184 73.152 8.064 62.208Q8.928 58.464 10.512 56.304Q12.096 54.144 13.536 53.28Q16.416 52.416 18.144 52.992Q20.448 53.568 21.312 55.872Q23.328 59.328 20.736 65.664Q20.16 67.392 19.296 68.688Q18.432 69.984 17.568 71.424Q15.552 74.016 14.256 77.328Q12.96 80.64 14.688 86.4Q15.552 89.856 17.28 92.448Q20.736 98.208 27.072 100.8Q31.968 103.392 38.88 102.816Q38.88 98.496 38.88 94.176Q38.88 89.856 38.592 85.248Q38.304 67.68 38.592 50.976Q38.88 34.272 41.904 21.312Q44.928 8.35199 51.984 0.431976Q59.04 -7.48798 72.288 -7.48801Q78.624 -7.48801 82.08 -4.32002Q87.84 -0.287994 90.432 8.63998Q92.736 16.992 92.736 26.784Q92.736 34.848 91.44 43.632Q90.144 52.416 87.696 60.768Q85.248 69.12 81.792 76.752Q78.336 84.384 74.016 90.144Q71.712 93.312 69.12 95.904Q66.528 98.496 63.648 100.8Q63.648 111.744 62.928 123.12Q62.208 134.496 59.616 144.576Q57.024 154.656 52.56 163.152Q48.096 171.648 40.896 177.12Q46.944 178.56 53.568 180.576Q60.192 182.592 67.104 184.896Q76.32 187.776 85.536 190.512Q94.752 193.248 102.24 194.4Q109.728 195.552 115.2 194.688Q120.672 193.824 122.4 189.504Q122.976 186.624 124.56 185.328Q126.144 184.032 127.44 184.32Q128.736 184.608 129.6 186.336Q130.464 188.064 129.6 190.944Q128.736 195.264 126.576 199.728Q124.416 204.192 120.672 207.936Q117.216 211.392 112.032 213.264Q106.848 215.136 99.936 214.56Q93.312 213.984 85.392 209.952Q77.472 205.92 68.544 200.736Q59.328 195.552 49.536 190.512Q39.744 185.472 29.952 183.456Q26.784 184.896 23.328 185.76Q19.872 186.624 15.84 187.2Q9.792 188.64 7.2 187.488Q4.032 186.624 3.456 183.456Q2.88 181.152 5.472 179.136Q8.064 176.544 16.416 175.104Q17.856 175.104 19.296 174.96Q20.736 174.816 22.464 174.816ZM72 -1.52588e-05Q66.816 2.592 64.368 8.92798Q61.92 15.264 61.2 24.192Q60.48 33.12 60.912 44.208Q61.344 55.296 62.208 67.104Q62.784 72.864 63.072 78.912Q63.36 84.96 63.648 91.008Q65.664 88.992 67.968 85.824Q72 80.64 75.168 73.44Q78.336 66.24 80.64 58.464Q82.944 50.688 84.096 42.48Q85.248 34.272 85.248 26.784Q85.248 16.992 83.232 10.656Q81.504 4.608 77.76 1.728Q75.456 0 72.288 -1.52588e-05L72 -1.52588e-05ZM186.624 168.48Q190.944 165.888 195.84 159.264Q201.312 151.776 205.92 141.84Q210.528 131.904 213.984 121.824Q214.848 119.232 216.288 118.368Q217.728 117.504 219.024 117.936Q220.32 118.368 221.184 119.952Q222.048 121.536 221.184 123.84Q217.728 134.208 212.688 145.008Q207.648 155.808 201.888 163.584Q196.992 170.784 191.232 174.528Q185.472 178.272 179.424 176.832L178.848 176.832Q178.56 176.544 178.272 176.544Q169.056 173.376 164.16 163.296Q159.264 153.216 157.824 138.24Q155.52 145.152 152.784 152.064Q150.048 158.976 146.736 164.448Q143.424 169.92 139.536 173.52Q135.648 177.12 131.328 177.408Q120.96 178.272 114.192 172.08Q107.424 165.888 104.256 155.52Q99.936 142.848 100.8 127.008C101.184 121.824 101.856 116.64 102.816 111.456Q104.256 103.68 106.848 96.48Q109.728 88.992 113.76 82.512Q117.792 76.032 122.976 71.568Q128.16 67.104 134.64 64.8Q141.12 62.496 148.608 63.36Q150.624 63.648 152.352 64.08Q154.08 64.512 155.808 65.952Q160.128 69.12 163.008 76.608Q163.008 77.184 163.296 77.472L165.6 68.256L166.464 65.088Q167.04 61.92 169.2 60.48Q171.36 59.04 174.24 58.752Q175.68 58.752 176.688 58.752Q177.696 58.752 179.136 59.328Q181.728 60.48 183.456 61.632Q186.624 63.648 188.208 66.816Q189.792 69.984 188.64 74.016Q186.912 79.488 185.328 86.544Q183.744 93.6 182.736 101.232Q181.728 108.864 180.864 116.928Q180 124.992 179.712 132.768Q178.848 149.184 179.712 160.128Q180.288 164.448 181.584 167.616Q182.88 170.784 186.624 168.48ZM146.304 72.576Q141.696 74.88 137.952 81.072Q134.208 87.264 131.04 95.616Q125.28 112.32 123.84 130.464Q122.976 139.392 123.12 147.312Q123.264 155.232 124.704 160.992Q127.008 170.208 130.752 169.92Q134.208 169.632 137.52 165.744Q140.832 161.856 143.712 155.808Q146.592 149.76 148.896 142.56Q151.2 135.36 153.216 128.304Q155.232 121.248 156.528 115.344Q157.824 109.44 158.4 106.272Q158.4 104.832 158.544 103.824Q158.688 102.816 158.976 101.376Q158.688 95.04 157.968 89.28Q157.248 83.52 155.808 79.2Q155.232 77.76 154.512 76.32Q153.792 74.88 153.216 74.016Q150.336 70.272 146.304 72.576ZM313.632 82.368Q315.072 64.224 316.944 47.232Q318.816 30.24 321.696 17.568Q321.696 11.808 326.88 9.79199Q329.472 8.35199 332.64 8.92798Q335.808 9.50395 338.4 10.656Q340.992 12.384 342.432 15.12Q343.872 17.856 343.008 21.888Q340.704 31.968 339.12 49.68Q337.536 67.392 336.672 87.84Q345.312 85.536 354.24 86.112Q363.168 86.688 371.808 92.736Q373.536 93.888 373.68 95.472Q373.824 97.056 372.96 98.208Q372.096 99.36 370.512 99.648Q368.928 99.936 367.2 98.784Q360 93.888 352.08 93.744Q344.16 93.6 336.384 95.616Q336.096 98.208 336.096 100.8Q336.096 103.392 336.096 105.984Q335.808 116.064 335.664 125.856Q335.52 135.648 335.664 144.432Q335.808 153.216 336.24 160.416Q336.672 167.616 337.248 172.8Q338.4 176.544 337.68 179.856Q336.96 183.168 332.064 184.32Q329.472 184.896 327.168 184.032Q324 183.456 320.832 181.584Q317.664 179.712 316.512 178.272Q314.496 175.392 313.92 172.08Q313.344 168.768 312.768 164.16L312.48 162.432Q311.616 154.368 311.616 138.384Q311.616 122.4 312.48 103.104Q304.992 105.12 298.224 104.4Q291.456 103.68 285.984 97.632Q282.528 93.6 285.408 91.584Q288.288 89.568 292.032 93.024Q296.064 96.768 301.392 96.768Q306.72 96.768 312.768 95.04L313.632 82.368ZM413.28 -1.52588e-05Q407.232 5.75999 400.32 7.63197Q393.408 9.50395 386.064 9.07199Q378.72 8.63998 371.088 6.62398Q363.456 4.608 355.968 2.30399Q350.208 0.575989 345.024 -1.00801Q339.84 -2.59201 334.944 -3.16801L332.928 -3.45601Q332.064 -3.45599 331.2 -3.60002Q330.336 -3.744 329.472 -3.74402Q313.92 -4.032 302.688 -0.144012Q291.456 3.744 284.256 10.08Q275.04 18.144 271.872 28.512Q268.992 38.88 271.584 48.672Q272.16 50.976 273.024 52.848Q273.888 54.72 274.752 56.736Q276.768 58.752 279.36 59.76Q281.952 60.768 284.256 61.344Q286.272 61.92 288.144 62.496Q290.016 63.072 291.456 64.224Q296.064 67.392 296.064 71.424Q296.64 73.44 295.488 74.88Q294.624 76.608 292.32 77.472Q288.864 78.912 284.256 76.032Q269.28 67.68 264.384 50.688Q260.928 38.592 264.672 26.496Q266.4 20.448 270 14.832Q273.6 9.21599 279.36 4.31999Q287.712 -2.59203 300.096 -6.91202Q312.48 -11.232 329.76 -10.944L333.792 -10.944Q344.736 -9.504 357.552 -8.35202Q370.368 -7.2 381.888 -6.62402Q390.528 -6.04797 397.296 -6.19202Q404.064 -6.33603 407.808 -7.20001Q413.28 -8.35202 414.72 -5.61601Q416.16 -2.88 413.28 -1.52588e-05ZM467.136 168.48Q471.456 165.888 476.352 159.264Q481.824 151.776 486.432 141.84Q491.04 131.904 494.496 121.824Q495.36 119.232 496.8 118.368Q498.24 117.504 499.536 117.936Q500.832 118.368 501.696 119.952Q502.56 121.536 501.696 123.84Q498.24 134.208 493.2 145.008Q488.16 155.808 482.4 163.584Q477.504 170.784 471.744 174.528Q465.984 178.272 459.936 176.832L459.36 176.832Q459.072 176.544 458.784 176.544Q449.568 173.376 444.672 163.296Q439.776 153.216 438.336 138.24Q436.032 145.152 433.296 152.064Q430.56 158.976 427.248 164.448Q423.936 169.92 420.048 173.52Q416.16 177.12 411.84 177.408Q401.472 178.272 394.704 172.08Q387.936 165.888 384.768 155.52Q380.448 142.848 381.312 127.008C381.696 121.824 382.368 116.64 383.328 111.456Q384.768 103.68 387.36 96.48Q390.24 88.992 394.272 82.512Q398.304 76.032 403.488 71.568Q408.672 67.104 415.152 64.8Q421.632 62.496 429.12 63.36Q431.136 63.648 432.864 64.08Q434.592 64.512 436.32 65.952Q440.64 69.12 443.52 76.608Q443.52 77.184 443.808 77.472L446.112 68.256L446.976 65.088Q447.552 61.92 449.712 60.48Q451.872 59.04 454.752 58.752Q456.192 58.752 457.2 58.752Q458.208 58.752 459.648 59.328Q462.24 60.48 463.968 61.632Q467.136 63.648 468.72 66.816Q470.304 69.984 469.152 74.016Q467.424 79.488 465.84 86.544Q464.256 93.6 463.248 101.232Q462.24 108.864 461.376 116.928Q460.512 124.992 460.224 132.768Q459.36 149.184 460.224 160.128Q460.8 164.448 462.096 167.616Q463.392 170.784 467.136 168.48ZM426.816 72.576Q422.208 74.88 418.464 81.072Q414.72 87.264 411.552 95.616Q405.792 112.32 404.352 130.464Q403.488 139.392 403.632 147.312Q403.776 155.232 405.216 160.992Q407.52 170.208 411.264 169.92Q414.72 169.632 418.032 165.744Q421.344 161.856 424.224 155.808Q427.104 149.76 429.408 142.56Q431.712 135.36 433.728 128.304Q435.744 121.248 437.04 115.344Q438.336 109.44 438.912 106.272Q438.912 104.832 439.056 103.824Q439.2 102.816 439.488 101.376Q439.2 95.04 438.48 89.28Q437.76 83.52 436.32 79.2Q435.744 77.76 435.024 76.32Q434.304 74.88 433.728 74.016Q430.848 70.272 426.816 72.576ZM500.832 71.712Q500.832 65.952 506.592 64.512Q509.472 63.648 512.352 63.936Q515.808 64.512 518.112 65.952Q521.28 67.68 523.296 70.704Q525.312 73.728 524.448 78.048Q522.144 90.144 520.992 101.088Q521.856 97.92 523.008 94.752Q524.16 91.584 525.312 88.704Q531.072 74.592 538.416 66.384Q545.76 58.176 554.4 58.464L557.856 59.04Q564.768 60.768 568.8 67.392Q572.832 74.016 575.136 83.232Q576.288 88.992 576.864 95.184Q577.44 101.376 577.44 108Q579.168 103.104 581.184 98.208Q583.2 93.312 585.504 88.704Q590.976 78.336 597.744 71.424Q604.512 64.512 613.152 64.512Q619.2 64.512 623.232 66.96Q627.264 69.408 629.712 74.016Q632.16 78.624 633.168 84.672Q634.176 90.72 634.176 97.92Q634.464 105.408 633.744 113.328Q633.024 121.248 632.448 129.6Q631.872 136.224 631.44 142.272Q631.008 148.32 631.008 153.504Q630.72 160.704 631.728 165.312Q632.736 169.92 635.904 169.92Q639.648 169.92 643.248 164.736Q646.848 159.552 650.016 152.352Q653.184 145.152 655.632 137.376Q658.08 129.6 659.808 124.416L660.672 121.824Q660.96 120.096 662.4 119.664Q663.84 119.232 665.28 119.664Q666.72 120.096 667.584 121.392Q668.448 122.688 667.872 124.416L667.008 126.72Q665.28 132.48 662.4 140.976Q659.52 149.472 655.632 157.392Q651.744 165.312 646.848 171.216Q641.952 177.12 636.48 177.408Q628.704 177.984 623.376 175.824Q618.048 173.664 614.88 169.488Q611.712 165.312 610.128 159.984Q608.544 154.656 608.256 148.608Q607.68 143.424 607.968 138.24Q608.256 133.056 608.544 128.736Q608.544 127.296 608.688 126.288Q608.832 125.28 608.832 124.704L609.984 107.712Q610.848 98.208 611.28 90.144Q611.712 82.08 609.984 77.76Q608.832 74.88 606.384 75.312Q603.936 75.744 602.208 77.472Q599.616 80.064 597.024 83.952Q594.432 87.84 592.128 92.16Q586.368 103.68 582.336 117.36Q578.304 131.04 576 141.408Q575.136 149.76 573.696 154.656Q573.12 158.112 570.96 160.128Q568.8 162.144 565.92 162.72Q563.616 163.584 561.024 163.008Q558.432 162.432 556.416 161.28Q553.248 159.552 551.52 156.384Q549.792 153.216 550.368 148.608Q550.944 144 551.664 136.944Q552.384 129.888 552.816 121.824Q553.248 113.76 553.248 105.552Q553.248 97.344 552.672 90.144Q552.096 85.536 551.376 81.648Q550.656 77.76 549.216 75.168Q547.2 70.56 545.04 71.28Q542.88 72 540.576 75.168Q535.968 82.08 532.224 91.584Q527.04 105.12 523.584 123.264Q520.128 141.408 518.976 161.856Q518.976 164.16 519.12 166.32Q519.264 168.48 519.552 170.784Q519.552 173.088 518.832 175.248Q518.112 177.408 514.944 177.984Q505.152 180 500.976 175.824Q496.8 171.648 495.36 164.448Q494.208 158.976 494.208 151.776Q493.632 142.848 493.776 133.776Q493.92 124.704 494.784 114.624Q495.36 104.832 496.944 94.32Q498.528 83.808 500.832 71.712ZM690.048 168.768Q692.64 166.464 695.52 161.568Q698.4 156.672 700.992 150.912Q704.736 142.56 707.616 134.496Q710.496 126.432 711.936 121.824Q712.512 120.096 713.952 119.52Q715.392 118.944 716.832 119.376Q718.272 119.808 718.992 121.104Q719.712 122.4 719.136 124.416Q717.696 129.312 714.672 137.52Q711.648 145.728 707.904 154.08Q704.16 161.856 699.984 168.192Q695.808 174.528 690.912 177.12Q688.608 178.272 686.304 178.272Q684.576 178.272 683.712 177.984Q672.192 176.256 666.432 161.856C662.592 152.64 660.672 140.064 660.672 124.128C660.672 118.56 660.912 112.608 661.392 106.272Q662.112 96.768 663.552 85.824Q663.552 82.656 665.28 80.64Q667.008 78.624 669.6 77.76Q671.04 77.472 672.48 77.328Q673.92 77.184 675.36 77.472Q678.528 78.048 681.12 79.2Q684.288 80.64 686.304 83.376Q688.32 86.112 687.744 89.28Q686.88 94.176 686.16 99.36Q685.44 104.544 684.864 110.016Q683.424 121.536 683.424 132.48Q683.424 143.424 684.288 152.352Q685.44 163.584 688.032 168.48Q688.608 170.208 690.048 168.768ZM677.088 43.2Q678.816 44.064 679.968 45.216L681.984 43.776Q684 42.912 685.728 42.336Q688.032 41.76 690.048 42.624Q692.928 43.488 694.656 46.368Q696.96 50.4 693.648 54.72Q690.336 59.04 686.016 63.648L681.12 68.832L678.24 72.288L675.648 68.544Q675.072 67.968 674.352 66.96Q673.632 65.952 672.768 64.8Q669.312 59.904 666 54.576Q662.688 49.248 664.704 45.504Q665.856 43.2 668.448 42.336Q670.464 41.472 673.056 41.76Q674.784 41.76 677.088 43.2ZM733.824 106.56Q733.248 115.776 732.96 124.56Q732.672 133.344 733.248 140.832Q733.824 153.792 735.84 162Q737.856 170.208 741.312 171.072Q746.208 171.936 750.816 166.896Q755.424 161.856 759.456 154.368Q764.064 146.304 767.376 137.376Q770.688 128.448 772.992 121.824Q773.568 119.808 775.008 119.232Q776.448 118.656 777.744 119.088Q779.04 119.52 779.76 120.96Q780.48 122.4 779.904 124.128Q777.6 131.04 774.144 140.4Q770.688 149.76 766.08 158.112Q761.184 167.328 754.992 173.376Q748.8 179.424 741.312 178.56Q728.352 177.696 721.584 165.744Q714.816 153.792 712.8 135.648Q711.36 122.688 711.936 108Q712.512 93.312 714.816 78.336Q717.12 63.072 721.152 48.96Q725.184 34.848 730.08 23.04Q736.992 6.62396 746.064 -2.59203Q755.136 -11.808 765.216 -9.21602Q766.368 -8.64001 767.376 -8.20801Q768.384 -7.77602 769.536 -7.20001Q774.72 -3.744 776.016 2.87997Q777.312 9.504 775.872 18.144Q774.432 25.92 771.264 35.136Q768.096 44.352 764.064 53.568Q760.032 62.208 755.712 70.416Q751.392 78.624 747.36 85.68Q743.328 92.736 739.728 98.208Q736.128 103.68 733.824 106.56ZM763.776 -1.72801Q759.744 -1.44 755.856 5.75999Q751.968 12.96 748.224 25.056Q744.192 37.152 741.312 51.84Q738.432 66.528 736.128 82.08L735.264 91.584Q740.16 83.808 746.064 73.008Q751.968 62.208 757.152 50.4Q761.184 41.472 764.064 32.832Q766.944 24.192 768.384 16.992Q769.536 10.368 768.96 5.75999Q768.384 1.15198 765.504 -0.864014L763.776 -1.72801ZM802.368 168.768Q804.96 166.464 807.84 161.568Q810.72 156.672 813.312 150.912Q817.056 142.56 819.936 134.496Q822.816 126.432 824.256 121.824Q824.832 120.096 826.272 119.52Q827.712 118.944 829.152 119.376Q830.592 119.808 831.312 121.104Q832.032 122.4 831.456 124.416Q830.016 129.312 826.992 137.52Q823.968 145.728 820.224 154.08Q816.48 161.856 812.304 168.192Q808.128 174.528 803.232 177.12Q800.928 178.272 798.624 178.272Q796.896 178.272 796.032 177.984Q784.512 176.256 778.752 161.856C774.912 152.64 772.992 140.064 772.992 124.128C772.992 118.56 773.232 112.608 773.712 106.272Q774.432 96.768 775.872 85.824Q775.872 82.656 777.6 80.64Q779.328 78.624 781.92 77.76Q783.36 77.472 784.8 77.328Q786.24 77.184 787.68 77.472Q790.848 78.048 793.44 79.2Q796.608 80.64 798.624 83.376Q800.64 86.112 800.064 89.28Q799.2 94.176 798.48 99.36Q797.76 104.544 797.184 110.016Q795.744 121.536 795.744 132.48Q795.744 143.424 796.608 152.352Q797.76 163.584 800.352 168.48Q800.928 170.208 802.368 168.768ZM789.408 43.2Q791.136 44.064 792.288 45.216L794.304 43.776Q796.32 42.912 798.048 42.336Q800.352 41.76 802.368 42.624Q805.248 43.488 806.976 46.368Q809.28 50.4 805.968 54.72Q802.656 59.04 798.336 63.648L793.44 68.832L790.56 72.288L787.968 68.544Q787.392 67.968 786.672 66.96Q785.952 65.952 785.088 64.8Q781.632 59.904 778.32 54.576Q775.008 49.248 777.024 45.504Q778.176 43.2 780.768 42.336Q782.784 41.472 785.376 41.76Q787.104 41.76 789.408 43.2ZM909.504 168.48Q913.824 165.888 918.72 159.264Q924.192 151.776 928.8 141.84Q933.408 131.904 936.864 121.824Q937.728 119.232 939.168 118.368Q940.608 117.504 941.904 117.936Q943.2 118.368 944.064 119.952Q944.928 121.536 944.064 123.84Q940.608 134.208 935.568 145.008Q930.528 155.808 924.768 163.584Q919.872 170.784 914.112 174.528Q908.352 178.272 902.304 176.832L901.728 176.832Q901.44 176.544 901.152 176.544Q891.936 173.376 887.04 163.296Q882.144 153.216 880.704 138.24Q878.4 145.152 875.664 152.064Q872.928 158.976 869.616 164.448Q866.304 169.92 862.416 173.52Q858.528 177.12 854.208 177.408Q843.84 178.272 837.072 172.08Q830.304 165.888 827.136 155.52Q822.816 142.848 823.68 127.008C824.064 121.824 824.736 116.64 825.696 111.456Q827.136 103.68 829.728 96.48Q832.608 88.992 836.64 82.512Q840.672 76.032 845.856 71.568Q851.04 67.104 857.52 64.8Q864 62.496 871.488 63.36Q873.504 63.648 875.232 64.08Q876.96 64.512 878.688 65.952Q883.008 69.12 885.888 76.608Q885.888 77.184 886.176 77.472L888.48 68.256L889.344 65.088Q889.92 61.92 892.08 60.48Q894.24 59.04 897.12 58.752Q898.56 58.752 899.568 58.752Q900.576 58.752 902.016 59.328Q904.608 60.48 906.336 61.632Q909.504 63.648 911.088 66.816Q912.672 69.984 911.52 74.016Q909.792 79.488 908.208 86.544Q906.624 93.6 905.616 101.232Q904.608 108.864 903.744 116.928Q902.88 124.992 902.592 132.768Q901.728 149.184 902.592 160.128Q903.168 164.448 904.464 167.616Q905.76 170.784 909.504 168.48ZM869.184 72.576Q864.576 74.88 860.832 81.072Q857.088 87.264 853.92 95.616Q848.16 112.32 846.72 130.464Q845.856 139.392 846 147.312Q846.144 155.232 847.584 160.992Q849.888 170.208 853.632 169.92Q857.088 169.632 860.4 165.744Q863.712 161.856 866.592 155.808Q869.472 149.76 871.776 142.56Q874.08 135.36 876.096 128.304Q878.112 121.248 879.408 115.344Q880.704 109.44 881.28 106.272Q881.28 104.832 881.424 103.824Q881.568 102.816 881.856 101.376Q881.568 95.04 880.848 89.28Q880.128 83.52 878.688 79.2Q878.112 77.76 877.392 76.32Q876.672 74.88 876.096 74.016Q873.216 70.272 869.184 72.576Z" transform="translate(48.568 0)" style="fill:#0c4a6e;" />
    </g>
  </g>
</svg>