<svg data-name="Layer 2" viewBox="0 0 35 35" xmlns="http://www.w3.org/2000/svg"><path d="M30.559 33.805H4.441A4.2 4.2 0 0 1 .25 29.614v-3.537a4.2 4.2 0 0 1 4.191-4.192h26.118a4.2 4.2 0 0 1 4.191 4.192v3.537a4.2 4.2 0 0 1-4.191 4.191Zm-26.118-9.42a1.693 1.693 0 0 0-1.691 1.692v3.537a1.693 1.693 0 0 0 1.691 1.691h26.118a1.693 1.693 0 0 0 1.691-1.691v-3.537a1.694 1.694 0 0 0-1.691-1.692Z" fill="#009ccc" class="fill-000000"></path><path d="M27.929 29.345a1.5 1.5 0 0 0 0-3 1.5 1.5 0 0 0 0 3ZM2.093 25.415a1.25 1.25 0 0 1-.883-2.133L22.931 1.561A1.25 1.25 0 1 1 24.7 3.329L2.977 25.049a1.246 1.246 0 0 1-.884.366ZM26.279 19.048h-9.51a1.25 1.25 0 1 1 0-2.5h9.51a1.25 1.25 0 0 1 0 2.5Z" fill="#009ccc" class="fill-000000"></path></svg>