<svg viewBox="0 0 96 96" xmlns="http://www.w3.org/2000/svg"><path d="M48 60a12 12 0 1 0 12 12 12.008 12.008 0 0 0-12-12ZM22.605 46.629a6 6 0 1 0 8.508 8.461 24.226 24.226 0 0 1 33.774 0 5.951 5.951 0 0 0 4.254 1.77 6 6 0 0 0 4.254-10.23c-13.618-13.712-37.172-13.712-50.79-.001Z" fill="#009ccc" class="fill-000000"></path><path d="M90.27 29.777a59.141 59.141 0 0 0-84.539 0 6 6 0 1 0 8.531 8.438c18.117-18.328 49.36-18.328 67.477 0a6 6 0 1 0 8.531-8.438Z" fill="#009ccc" class="fill-000000"></path></svg>